<svg xmlns="http://www.w3.org/2000/svg" xmlns:xlink="http://www.w3.org/1999/xlink" viewBox="0 0 1280 720"><defs><style>.cls-1,.cls-24,.cls-34{fill:none;}.cls-2{fill:url(#Sfumatura_senza_nome_12);}.cls-3{clip-path:url(#clip-path);}.cls-4{fill:#4c6644;}.cls-5{fill:#5a7751;}.cls-6{fill:#3e5438;}.cls-7{fill:#8e9964;}.cls-8{fill:#92a06b;}.cls-9{fill:#dcdcdc;}.cls-10{fill:#fafafa;}.cls-11,.cls-25{fill:#fff;}.cls-12{fill:#efefef;}.cls-13{clip-path:url(#clip-path-2);}.cls-14{fill:#0d0d0d;}.cls-15{fill:#ee7203;}.cls-16{fill:#b8af9c;stroke:#d8d8d8;stroke-miterlimit:22.93;stroke-width:2.03px;}.cls-17{fill:#f6f6f4;}.cls-17,.cls-18,.cls-19,.cls-20{fill-rule:evenodd;}.cls-18{fill:#d4137e;}.cls-19{fill:#41bfe1;}.cls-20{fill:#fcff16;}.cls-21{fill:#737474;}.cls-22{fill:#7d7d7d;}.cls-23{fill:#1d1d1b;}.cls-24{stroke:#737474;stroke-width:3.21px;}.cls-24,.cls-25,.cls-34{stroke-miterlimit:10;}.cls-25{stroke:#fff;stroke-width:0.8px;}.cls-26{fill:#440202;}.cls-27{clip-path:url(#clip-path-3);}.cls-28{fill:#701616;}.cls-29{fill:#fff5ed;}.cls-30{clip-path:url(#clip-path-4);}.cls-31{fill:#e8c0a8;}.cls-32{fill:#f3d1bb;}.cls-33{fill:#c6c6c6;}.cls-34{stroke:#efefef;}.cls-35{fill:#f1c0f2;}</style><radialGradient id="Sfumatura_senza_nome_12" cx="838.96" cy="616.42" r="1116.7" gradientUnits="userSpaceOnUse"><stop offset="0" stop-color="#fff"/><stop offset="0.09" stop-color="#ee7203"/><stop offset="0.56" stop-color="#0d0d0d" stop-opacity="0"/></radialGradient><clipPath id="clip-path"><rect class="cls-1" x="42.5" y="487.27" width="304.93" height="232.73"/></clipPath><clipPath id="clip-path-2"><rect class="cls-1" x="517.85" y="505.36" width="244.3" height="214.64"/></clipPath><clipPath id="clip-path-3"><path class="cls-1" d="M707.3,627c-7.11-6.85-67.3-11.85-67.3-11.85s-60.19,5-67.3,11.85-12.9,65.55-12.9,65.55H720.2S714.41,633.87,707.3,627Z"/></clipPath><clipPath id="clip-path-4"><path class="cls-1" d="M621.2,588.93v28.75a18.8,18.8,0,0,0,37.6,0V588.93Z"/></clipPath></defs><title>hero-on copia</title><g id="ball"><rect class="cls-2" width="1280" height="720"/><g class="cls-3"><path class="cls-4" d="M230.45,538.41c-10,6.2-47.4,29.44-59.65,61.84S155,742.44,155.48,744.67c.79,4,4.05,4.41,5.06-2.18s4.59-90.09,8.14-105.29,7.54-43.05,28.4-62.83,45.11-36.91,44.56-38S234.85,535.69,230.45,538.41Z"/><path class="cls-5" d="M141.65,541.61c8.26.28,33.78,29,40,58.07,10.56,49.47,13,143.24,15.54,146.93,1.39,2,6.67.92,5.75-3.68s-11.21-132.54-15.64-149.4S167.41,557.37,161,549.08s-14.27-13.78-19.39-13.15S138.42,541.5,141.65,541.61Z"/><path class="cls-6" d="M199.86,656.67c-9.39,2.85-22.45-7.47-24.49-20.06s4.49-26.07,24.49-32.6,38.77,2,46.94,7.76,26.12,24.9,22.85,30.61-13.47-1.22-20,5.72-14.28,23.67-24.89,28.57-18.78,0-22-4.9S199.86,656.67,199.86,656.67Z"/><path class="cls-4" d="M334,599.7c-4.44-3.67-16.24,4.46-21.22,5.77s-7.07-5.77-2.09-9.44,21-6.53,24.35-12.82.26-16.78-2.35-25.42-13.1-25.13-17.54-24.87-14.4,8.64-19.13,12-16.49-1.3-12.57-5.74,26.2-7.34,28-11.27S299.4,504.11,290,498.6s-19.69-7.48-32.4-2.63c-16,6.12-20.6,26.12-21.74,28.21a.23.23,0,0,1-.05.1c-.54.76-2.07.8-3.85.61-1.6-.16-3.41-.5-4.87-.61-21.44-1.68-31.38,8.12-38.51,17.33-5.8,7.5-7,22.66-7,26.93s3.36,18.9,7,19.78,6.1-13.17,16.78-18.66,22.26-3.66,19.83,0-20,14.39-23.81,21.35c-5.15,9.48-5.15,15.24-2.78,21.27s10.21,20.43,15.71,19.89,18.59-16.76,22.52-17.54,4.18,4.2,1.31,6.55-18.06,16.23-17.54,21.74,3.4,23.83,24.87,24.39c21.95.56,41.5-8.1,49.1-6s11.66,14.8,15.34,13.4,19.65-14,23-30S338.44,603.36,334,599.7Zm-46.37,17c1.34-.47,3.17,1.75,3,4s-2.13,1.58-4.2,0S285.24,617.52,287.61,616.74Zm-42.86-95.47c1.9-5,4.62-9.77,8.52-11.71s4.8,1.06,3.55,2.64-5.6,11.37-7.24,12.43S243.63,524.26,244.75,521.27Zm-12.39,53.45c2.18-1,5.84.16,6,2.27s-3.41,5.21-8,7.49-6.5,1.95-7.64,0S224.69,578.15,232.36,574.72Zm12.16,10.43c3.1-1.18,6,2.26,4.76,3.41s-5.3,4.33-6.77,3.42S241.26,586.38,244.52,585.15Zm18,56.31c-.52-3.17,5.65-6.53,10-10.6s8.75-8.26,13-6.13c1,.52,1.4,4.19,0,8.43s-13.1,9.2-15.92,11S263,644.65,262.51,641.46Z"/><path class="cls-7" d="M324.48,622.32c-3.23,1.16-8.9,5.13-13.42,5.43-3.86.26-9.25,0-10.91-.77a121.16,121.16,0,0,1,3.45,12.77c2.43,12.39.93,20.52.93,20.52s-1,.92-1.32-9.7c-.19-5.62-1.78-13.27-4.48-21.8-1.61,3.08-6.05,12.15-11.2,15.87-6,4.38-15.52,7.39-16.14,7.09s9.82-4.37,13.29-7.09,6.62-5.88,7.54-8.74c.76-2.44,3.78-8.75,5.35-10.61a192.85,192.85,0,0,0-12.44-28.44c-1.68,4.35-9,19.78-13.53,25.32-4.91,6-20.6,16.35-23.29,17.82s8.36-6.16,10.95-8.85,11.2-10.61,12.34-13.08,7.27-12.93,8.23-15.88c.82-2.57,2.07-7.27,3.52-8.56-.22-.37-.43-.77-.63-1.14-3.42-6-7.07-11.74-10.81-17.26-1.45,5-5.09,16.12-10.82,22.67-6.81,7.76-16.27,10.9-17.76,10.84s6.64-3.58,10.26-6.62,9.91-10.58,10.88-14.41c.93-3.65,3.69-13.06,5.32-15.6-3.34-4.79-6.7-9.36-10-13.64-.69,1.37-2.35,3.55-4.2,6.4-2.46,3.81-7.7,11-9.87,13.51s-8.79,7.09-12.07,10.25-15,9.68-16.59,10.6-2.22.76.65-1.44S237,584,242.17,579.57s14.37-20.85,15.49-23.23a.87.87,0,0,1,.28-.36c-3.25-4.18-6.37-8-9.2-11.51-.88-1.05-1.72-2.09-2.56-3.1-1.6,2-5.58,5.11-8.53,7.18-3.58,2.54-7.48,3.7-11.34,4.71s-10.56,2.12-8.36,1.32,7.67-1.81,13.34-4c5.28-2.09,9.93-8.19,13-11.38-2-2.43-4-4.72-5.78-6.83-3.25,1.16-11.33,2.16-16.51,2.09-6.48-.08-12,.67-17.64,3.77s-7.8,6.17-7.11,4.63,9.67-9.6,16.65-10.58c6.25-.9,19.11-.43,22.82-2-1.74-2-3.36-3.81-4.82-5.4,1.78.19,3.31.15,3.85-.61a.23.23,0,0,0,.05-.1c2.37,2.93,4.89,6.31,6.68,8.74.75,1,1.89,2.37,3.25,4,3.58-2.85,15.08-11.79,24.71-16,10.43-4.59,22.48-4.38,21.12-3.75s-13,2-18.94,4.89S251.22,535.23,249,537.62a4.1,4.1,0,0,1-1.64,1.06c3.71,4.24,8.49,9.52,12.41,14.2,2.11-.69,4.92-1.45,10.67-3.34,6.57-2.18,10.43-4.9,10.26-4.46s-3.39,2.09-7.68,4.15c-3.89,1.86-9.8,4.1-12.21,4.9,1.29,1.59,2.46,3.08,3.42,4.41,1.88,2.65,4.75,7.13,7.87,12.11,4.91-2.18,23.18-6.61,30.77-9.84,8.36-3.56,15.12-11.79,15.73-11.08s-9.2,8.81-13,11.14-17.69,7.28-20.61,8.47c-1.48.58-3.61,1.64-5.66,2.6a22.64,22.64,0,0,1-5.24,1.94c2.7,4.34,5.45,8.86,7.82,12.74,2-.45,8-1.73,11.51-1.72,4.27,0,14.93-6.94,23.27-9.21,3.49-1-7.28,4.12-11.23,7.12s-12.21,4-16,4a9.52,9.52,0,0,0-5.93,2.48c1.62,2.65,3,4.87,3.88,6.27a87.26,87.26,0,0,1,5.51,11.66c2.14,5.23,4.42,11.37,6.38,17.23a90.87,90.87,0,0,1,9.64.65c3.62.56,15.38-4,18-6.23S326.59,621.57,324.48,622.32Z"/><path class="cls-5" d="M175.78,577.83c-2.67-3.85-1.78-3,2.66-4.76s21.33,13.6,25.33,9,15.56-14.8,12.89-21.91S194,539.59,178.89,540.78s-16.89-1.45-16.89-5,10.21-4.89,15.1-4.22S192.66,538,194,535.32s-6.66-9.22-12.45-12-19.76-6.82-27.54-1.82a79.31,79.31,0,0,0-17.47,15c-.91,1.06-1.36,1.7-1.36,1.7a6.73,6.73,0,0,0-1.34-2.34c-1.91-2.42-6.48-6.23-17.17-9-16.89-4.44-33.33,11.67-40.44,20S67.79,574,69.56,575.79s6.66-8.17,16.89-12.11,20.43-4.22,21.78,1.72-.9,8.25-7.11,10.86-30.66,4.23-35.55,9.65-6.68,18.6-4.89,29.1,4,13.14,6.21,11.61,7.56-14,13.33-16,10.67,1.87,8.45,4.38-21.33,15.88-21.33,21.43,5.77,19.31,8.88,19.76S84.68,645.28,90,642.07s10.23-.09,7.11,2.58-13.77,11.94-14.21,17.52,16,25.58,27.56,32.24,20.88,9.35,24.44,7.11,17.77-13.77,18.66-19.1-13.77-4.89-12-13.78,9.41-9.83,12-6.47,2.18,16.38,5.3,14.54,16.61-5.88,25.32-18.29,4-18.64,0-22-22.65-4.52-22.65-11.5,7.11-14.66,15.54-9.93,8.42,11.29,12.86,9.07,11.3-12.63,15.35-23.28S178.44,581.67,175.78,577.83ZM159,566.39c-2.78,0-5.69-1.89-5.56-4.67s1-3.92,5.56-5c2.68-.67,13.26,1.63,14.16,3s-1.27,3.67-2.78,5.63S161.82,566.39,159,566.39Zm-19-6.7c3.53-.64,7.2,2.4,6.31,4.42s-4.93,1.53-7.86,1.21S136.55,560.32,140.08,559.69Zm-27.49,18.14c2.56-1.24,6.83,1.95,6.44,4.21s-5.69,4.8-8.83,3.79S107.85,580.1,112.59,577.83Z"/><path class="cls-8" d="M134,553.27c-1.27,5.06-2.82,11.16-4.09,17,2.56.35,9.85.73,12.15,1.51,2.57.88,9.87,1.72,13.86,4.12s16.83,5.75,12.28,5.15-25.51-8.26-31.24-8.84c-3.69-.37-6.1-.45-7.37-.47-.48,2.37-.93,4.7-1.28,6.85-.23,1.51-.55,3.69-.88,6.34a25.15,25.15,0,0,1,5.37-.09c2.67.37,18.59,3.43,21.46,4.18s15.41,4.13,18.21,5.71,9.65,4.65,9.18,4.95-6.81-2.39-9.62-4.16-26.43-7.49-29.47-7.84c-2.57-.3-11.44-.84-15.37-.82-.49,3.78-1,8.34-1.55,13.19,1.77-.11,4.2-.39,5.78,0,2.11.56,10.12.52,13.9,1.17s13,2.76,14.54,3.64c1.29.77,4.18,2.07,4.46,2.33a.28.28,0,0,1-.11,0c-.9-.2-12.11-4.4-18.83-4.6-5.73-.19-16.07-1.18-19.89-1.2-.86,8.1-1.68,16.93-2.2,24.54,2.44-.39,7.12-.41,8.62-.8,1.92-.53,12.31-.77,14.87-.64s11.18,2.06,11.18,2.71-11.44-2.2-17.47-1.57c-5.36.58-14.24,2.3-17.37,3-.13,2-.23,4-.28,5.73-.11,3.11,0,6.83.22,10.78,1.7.08,4.18.6,6.38.51,3.42-.15,10.68.13,12.67.84s8.4,4.85,7.84,5-8.12-3.85-13.34-4a62.3,62.3,0,0,0-13.31,1.11c1.27,16.47,4.5,35.73,5.19,37.52.88,2.39-.89,6.85-3.88-3-1.42-4.68-2.76-14.21-3.62-26.29-3.43,1.31-10.51,5.25-12.61,7.86-2.43,3-4,7.69-4.63,7s2.2-5.41,3.9-9c.86-1.77,3.66-3.84,6.49-5.5a32,32,0,0,1,6.66-3.18c-.54-8.47-.84-18-.76-28-3.71-.82-10-2.24-14.71-1-5.65,1.41-20.39,12.05-20,10.65s4.63-3.92,6.55-5.48,9.18-6.33,11.7-7.23,7.17-1,9.35-1.15a34,34,0,0,1,7.17.67q.07-5.82.37-11.74c.11-2.54.3-5.06.5-7.56-3.39-1.47-13.73-6.06-20.36-5.54-6.94.56-17.61,2.65-20.15,3.75s-7.14,3.51-6.59,2.75,5.83-3.19,9.78-4.95,15.3-3.41,18.27-3.3,11.68,1.64,13.32,2.42,4.67,2.28,5.9,2.84a289,289,0,0,1,5.38-34.09c-3-3.16-8.59-8-12.34-9.35-4.74-1.72-15.71-.88-15.23-1.68s15.72-.28,18.33,1.31a72.1,72.1,0,0,1,9.63,8c1.08-4.87,2.16-9.21,3.13-12.91-1.68-1.53-4.31-4.63-5.52-5.86-1.79-1.79-7.3-4.87-10.49-5.11a37.17,37.17,0,0,0-12.65,2c-2.54,1.16-10.47,3.85-7.91,2.43s15.84-8,23.75-6.12c6.31,1.53,11.89,6.6,13.89,8.6.72-2.67,1.32-4.83,1.75-6.38.58-2.15.52-4.29,1-6.05a6.73,6.73,0,0,1,1.34,2.34s.45-.64,1.36-1.7c-.07,1.9-.31,4.21-.3,5.82a40.84,40.84,0,0,1-1.26,6.79c3.62-1.51,13.06-4.44,19.92-4.12,7.77.35,32.59,7.87,34.19,9.09s-4.83-1.22-7.5-1.89-21.2-5.09-25.75-5.22S136.61,552.43,134,553.27Z"/><path class="cls-6" d="M217.06,640.18c-13.22,9.67-24.37,24.52-30.6,42.64s-6.87,62.33-8.85,64-5.73.28-5.13-2.27,4.65-56.41,12.28-72.23,24.63-34.29,30.57-37.81S223.2,635.68,217.06,640.18Z"/></g><rect class="cls-9" x="428.87" y="564.12" width="106.5" height="81.41"/><rect class="cls-10" x="453.72" y="504.5" width="44.79" height="55.66" transform="translate(-18.32 16.97) rotate(-2)"/><rect class="cls-11" x="476.12" y="512.47" width="44.79" height="47.69" transform="translate(29 -25.56) rotate(3.02)"/><path class="cls-12" d="M535.37,532.33v31.79h-32l-.32.82a22.45,22.45,0,0,1-41.92,0l-.32-.82h-32V532.33h30.24a25,25,0,0,0,46,0Z"/><rect class="cls-10" x="434.11" y="536.29" width="44.79" height="55.66"/><rect class="cls-11" x="456.38" y="550.78" width="44.79" height="44.79" transform="translate(-45.95 41.75) rotate(-4.76)"/><path class="cls-12" d="M535.37,566.68V598h-32l-.32.82a22.45,22.45,0,0,1-41.92,0l-.32-.82h-32V566.68h30.24a25,25,0,0,0,46,0Z"/><rect class="cls-11" x="474.79" y="589.4" width="44.79" height="47.69" transform="translate(33.05 -25.38) rotate(3.02)"/><path class="cls-12" d="M535.37,600.56v45H428.87v-45h30.24a25,25,0,0,0,46,0Z"/><g class="cls-13"><path class="cls-14" d="M698.16,526.05l-109.24-1.86C577.79,524,568.6,533.3,568.4,545L551.86,731.78c-.19,11.66,8.67,21.26,19.81,21.45l136,2.32c11.13.19,20.32-9.11,20.52-20.77L718,547.5C718.16,535.84,709.3,526.24,698.16,526.05Z"/><path class="cls-14" d="M678.9,525.72l-90.61-1.54c-9.24-.16-16.89,9.17-17.09,20.82L556.94,731.87c-.2,11.66,7.13,21.23,16.37,21.39l112.77,1.92c9.24.16,16.88-9.17,17.08-20.82l-7.89-187.24C695.47,535.46,688.14,525.88,678.9,525.72Z"/></g><polygon class="cls-12" points="344.06 692.97 935.94 692.97 985.94 720 294.06 720 344.06 692.97"/><rect class="cls-14" x="767.17" y="502.71" width="56.01" height="6.35"/><rect class="cls-11" x="767.17" y="509.06" width="56.01" height="45.59"/><rect class="cls-11" x="771.36" y="521.69" width="34.17" height="27.35"/><rect class="cls-11" x="785.03" y="514.76" width="34.24" height="27.39"/><rect class="cls-15" x="784.62" y="514.4" width="34.85" height="0.79"/><rect class="cls-15" x="770.94" y="521.24" width="48.53" height="0.79"/><rect class="cls-15" x="771.07" y="528.08" width="48.39" height="0.79"/><rect class="cls-15" x="771.07" y="534.92" width="48.39" height="0.79"/><rect class="cls-15" x="771.07" y="541.75" width="48.39" height="0.79"/><rect class="cls-15" x="770.96" y="548.59" width="34.54" height="0.79"/><rect class="cls-15" x="770.94" y="521.69" width="0.79" height="27.35"/><rect class="cls-15" x="777.78" y="521.69" width="0.79" height="27.06"/><rect class="cls-15" x="784.62" y="515.04" width="0.79" height="33.71"/><rect class="cls-15" x="791.46" y="515.04" width="0.79" height="33.71"/><rect class="cls-15" x="798.29" y="515.04" width="0.79" height="33.71"/><rect class="cls-15" x="805.13" y="515.04" width="0.79" height="34.3"/><rect class="cls-15" x="811.97" y="515.04" width="0.79" height="27.06"/><rect class="cls-15" x="818.81" y="514.51" width="0.79" height="28.01"/><rect class="cls-15" x="767.17" y="509.06" width="55.37" height="0.79"/><path class="cls-14" d="M768.21,553.88h54.12V503.72H768.21Zm55.7,1.58H766.63V502.14h57.28Z"/><path class="cls-15" d="M802.88,506.15h-2.37v-.79h2.37Zm-11.85,0h-8.7v-.79H791Zm-11.07,0h-9.48v-.79H780Z"/><rect class="cls-16" x="875.64" y="502.91" width="147.07" height="122.41"/><polygon class="cls-17" points="900.15 539.68 924.66 539.68 924.66 567.25 900.15 565.72 900.15 539.68"/><polygon class="cls-17" points="938.45 559.6 962.96 559.6 962.96 590.23 938.45 588.53 938.45 559.6"/><polygon class="cls-18" points="947.58 553.85 952.79 553.85 952.79 567.25 947.58 566.51 947.58 553.85"/><polygon class="cls-19" points="909.28 532.79 914.49 532.79 914.49 546.19 909.28 545.45 909.28 532.79"/><polygon class="cls-17" points="974.45 524.36 998.96 524.36 998.96 555 974.45 553.3 974.45 524.36"/><polygon class="cls-20" points="983.58 518.62 988.79 518.62 988.79 532.02 983.58 531.27 983.58 518.62"/><rect class="cls-21" x="815.67" y="704.86" width="25.16" height="4.79" rx="1.06"/><path d="M837.24,647.34a2.4,2.4,0,0,0-4.8,0v6h4.8Z"/><rect class="cls-22" x="832.44" y="653.34" width="4.79" height="16.78"/><polygon points="837.24 647.34 840.83 647.34 840.83 659.33 839.63 659.33 839.63 648.54 837.24 648.54 837.24 647.34"/><rect class="cls-22" x="817.53" y="650.86" width="4.79" height="31.16" transform="translate(-127.58 198.84) rotate(-12.84)"/><polyline points="814.13 651.79 815.13 645.41 818.8 650.72"/><path d="M826.45,640.15a2.4,2.4,0,0,0-4.79,0v12h4.79Z"/><rect class="cls-14" x="821.66" y="652.14" width="4.79" height="17.97"/><polygon points="842.83 676.1 843.23 670.11 819.26 670.11 819.72 676.1 842.83 676.1"/><polygon class="cls-23" points="819.26 670.11 813.27 670.11 813.67 676.1 819.72 676.1 819.26 670.11"/><path class="cls-22" d="M821.32,696.84a4.79,4.79,0,0,0,4.78,4.43h15l1.68-25.17H819.72Z"/><path class="cls-21" d="M826.1,701.27a4.79,4.79,0,0,1-4.78-4.43l-1.6-20.74h-6.05l1.92,28.84a1.2,1.2,0,0,0,1.2,1.12h22.92a1.21,1.21,0,0,0,1.2-1.12l.24-3.67Z"/><path class="cls-21" d="M930.69,709.66H862.91c6.56-9.13,19.27-15.32,33.89-15.32S924.12,700.53,930.69,709.66Z"/><line class="cls-24" x1="937.26" y1="650.11" x2="906" y2="704.66"/><line class="cls-24" x1="931.57" y1="647.22" x2="900.82" y2="700.98"/><line class="cls-24" x1="897.12" y1="588.78" x2="935.58" y2="635.77"/><line class="cls-24" x1="892.48" y1="592.67" x2="930.94" y2="639.66"/><path class="cls-24" d="M932.47,637.27a6.94,6.94,0,0,0-.9,9.7,6.76,6.76,0,0,0,9.59.91,6.94,6.94,0,0,0,.9-9.7A6.76,6.76,0,0,0,932.47,637.27Z"/><path class="cls-24" d="M886.76,581a7,7,0,0,0-1,9.74,6.77,6.77,0,0,0,9.64.87,7,7,0,0,0,1-9.74A6.78,6.78,0,0,0,886.76,581Z"/><path class="cls-25" d="M847.63,602.22a9.27,9.27,0,0,0-1.2,12.94h0a9,9,0,0,0,12.79,1.22l14.33-12a9.26,9.26,0,0,0,1.21-12.94h0A9,9,0,0,0,862,590.22Z"/><path class="cls-22" d="M851,581.34a29.24,29.24,0,0,1,23.1-2.25l9.59-8a9.76,9.76,0,0,1,13.86,1.32,10,10,0,0,1-1.3,14l-9.6,8A30.07,30.07,0,0,1,880.12,617l-10.64,12.08a86.72,86.72,0,0,1-32.24-39.4Z"/><path class="cls-21" d="M897.13,572c.13.14.26.28.38.43a10,10,0,0,1-1.3,14l-9.6,8A30.07,30.07,0,0,1,880.12,617l-10.64,12.08a86.14,86.14,0,0,1-18.43-16.52Z"/><path class="cls-21" d="M873.43,697.57a.86.86,0,0,0,1.14.44l9.82-4.46a.88.88,0,0,0,.43-1.16l-1-2.24a.87.87,0,0,0-1.15-.44l-9.81,4.46a.86.86,0,0,0-.44,1.15Z"/><path class="cls-26" d="M707.3,627c-7.11-6.85-67.3-11.85-67.3-11.85s-60.19,5-67.3,11.85-12.9,65.55-12.9,65.55H720.2S714.41,633.87,707.3,627Z"/><g class="cls-27"><rect class="cls-28" x="649.33" y="575.45" width="129.84" height="125.29" transform="translate(-242 691.95) rotate(-45)"/></g><path class="cls-29" d="M621.2,588.93v28.75a18.8,18.8,0,0,0,37.6,0V588.93Z"/><path class="cls-28" d="M666.71,618.27a26.71,26.71,0,0,1-53.42,0V618c2.73-.34,5.39-.65,7.91-.93v.62a18.8,18.8,0,0,0,37.6,0v-.62c2.52.28,5.18.59,7.91.93Z"/><g class="cls-30"><rect class="cls-31" x="595.03" y="562.76" width="52.34" height="52.34" transform="translate(644.02 1444.62) rotate(-135)"/></g><path class="cls-32" d="M605.25,553.79c-1.3-12.11-6.71-21.48-12.08-20.93s-8.68,10.82-7.37,22.93,6.71,21.48,12.09,20.92S606.56,565.9,605.25,553.79Zm-8.71,19a2.69,2.69,0,1,1,2.69-2.69A2.68,2.68,0,0,1,596.54,572.8Z"/><path class="cls-29" d="M686.83,532.86c-5.37-.55-10.78,8.82-12.08,20.93s2,22.37,7.36,22.92,10.79-8.81,12.09-20.92S692.21,533.41,686.83,532.86Zm-3.37,39.94a2.69,2.69,0,1,1,2.68-2.69A2.68,2.68,0,0,1,683.46,572.8Z"/><path class="cls-14" d="M683.46,565.53a4.59,4.59,0,1,0,4.58,4.58A4.58,4.58,0,0,0,683.46,565.53Zm0,7.27a2.69,2.69,0,1,1,2.68-2.69A2.68,2.68,0,0,1,683.46,572.8Z"/><path class="cls-14" d="M596.54,565.53a4.59,4.59,0,1,0,4.59,4.58A4.58,4.58,0,0,0,596.54,565.53Zm0,7.27a2.69,2.69,0,1,1,2.69-2.69A2.68,2.68,0,0,1,596.54,572.8Z"/><path class="cls-32" d="M597.16,541.74c0,32.61,19.18,59,42.84,59V482.69C616.34,482.69,597.16,509.13,597.16,541.74Z"/><path class="cls-29" d="M640,482.69V600.78c23.66,0,42.84-26.43,42.84-59S663.66,482.69,640,482.69Z"/><circle cx="618.99" cy="552.35" r="1.48"/><circle cx="614.81" cy="573.77" r="0.87"/><path class="cls-14" d="M690.28,517c-.72-4-4.68-11-7.58-13.79,1.12-2.82.21-5.7-1.78-8a44.3,44.3,0,0,0-12.32-10,5,5,0,0,1,1.24,2.23c-5.81-4.39-13.8-5.23-19.33-10a8.37,8.37,0,0,1,1.38,3.11,23.71,23.71,0,0,1-15.69-10.16c-2.46,3.69-3.66,5.46-3.18,9.87-4.06-.21-6.94-1.1-8.73-4.74s-3.13-7.74-6.25-10.34c.85,2.11-.17,4.45-1,6.58a32.45,32.45,0,0,0-1.92,13.45,40.38,40.38,0,0,0-17.33-10.46c2.83,5.69,4.25,12,5.64,18.16a15.29,15.29,0,0,0-7.05-4.95c2.31,3,1.18,7.27,0,10.84-.78,2.26-1.93,4.87-2.67,7.15-2.09,6.43-3.4,13.24-.79,19.48l2.37,5.65a37.23,37.23,0,0,1,1.53,4.09c1,3.48-.2,7.43,1.71,10.52,1.76.39,4.69.74,6.46,1.13-1.05-5.22-1-4.5-1.84-9.75-.82-5-2.67-8.59-2-13.63.08-.66,1-5.35,1.47-5.79,1-.88,2.3,1.36,3.33,2.23-1.76-2.44-1.94-8.38.17-10.53-.14,2.25,1,2.29,2.72,3.73-.39-2.43-.6-5.39,1.36-6.9a6.72,6.72,0,0,1,2.62-1s41-7.28,51.37.31c1.56,1.15.94,3.77,1,5.71a4.44,4.44,0,0,0,3.15-4.36c.93,4.09,3.11,11.31.16,14.13,0,0,9.14-4.6,9.14-7.54a82.36,82.36,0,0,1,2,10.14c1.13,10.47,1.23,11.67.31,22.17a17.83,17.83,0,0,1,5.59-.57c-.21-11.16,2.83-19.06.87-31.13C687.1,515,689.55,516.11,690.28,517Z"/><path class="cls-33" d="M599.23,514.47c0,1-.11,2-.21,3.06a28.2,28.2,0,0,1-.52,3,30.28,30.28,0,0,1,.73-6.09Z"/><path class="cls-33" d="M683.82,527.85a30.06,30.06,0,0,1-.73,6.09,30.28,30.28,0,0,1,.73-6.09Z"/><path class="cls-33" d="M594.52,516.63a28.27,28.27,0,0,1,.79,3,27.72,27.72,0,0,1,.49,3,30.84,30.84,0,0,1-1.28-6Z"/><path class="cls-33" d="M597.53,516c.12,1.72.13,3.43.15,5.14s0,3.43-.15,5.14c-.13-1.71-.14-3.42-.16-5.14S597.4,517.75,597.53,516Z"/><path class="cls-33" d="M682.11,523.66c.13,1.71.14,3.43.16,5.14s0,3.43-.16,5.14c-.13-1.71-.13-3.43-.15-5.14S682,525.37,682.11,523.66Z"/><path class="cls-33" d="M614.49,491.75c1.44.94,2.81,2,4.18,3s2.71,2.1,4,3.24c-1.44-.94-2.81-2-4.18-3S615.78,492.89,614.49,491.75Z"/><path class="cls-33" d="M608.33,487.93c2.3,1.82,4.51,3.72,6.74,5.61s4.4,3.84,6.53,5.85c-2.3-1.82-4.51-3.72-6.73-5.61S610.46,489.94,608.33,487.93Z"/><path class="cls-33" d="M597,512.67c0,1.28-.17,2.55-.3,3.82s-.34,2.53-.62,3.78c0-1.28.18-2.55.31-3.82S596.74,513.92,597,512.67Z"/><path class="cls-14" d="M620.79,592.59s-2.07,3.7,3.31,11.58c0,0,.07-.57,1.29-1.79,0,0,7.31,6,7.24,5.59,0,0-1.36-1.64.79-3.8l5.09,4.31a11.6,11.6,0,0,1,4.09-2.08c2.51-.72,3.08-1.65,3.08-1.65a17.36,17.36,0,0,1,2.29,3.73,33.28,33.28,0,0,0,5.74-3.45,12.6,12.6,0,0,0,2.58-2.72,16.53,16.53,0,0,1,1.15,3.66s5.81-8.18,3.37-14.41c0,0-13.41,1.14-16.56.71a40,40,0,0,0-10.83.36C629.76,593.2,620.79,592.59,620.79,592.59Z"/><path d="M646.9,579.84s.45,1.87-1.14,5a1.69,1.69,0,0,0-.38-.7,30.17,30.17,0,0,1-2.15,2.2,1.36,1.36,0,0,0-.23-1.5l-1.51,1.7a3.33,3.33,0,0,0-1.21-.82,1.58,1.58,0,0,1-.91-.65,7.16,7.16,0,0,0-.68,1.47,9.57,9.57,0,0,1-1.7-1.36,5,5,0,0,1-.76-1.07,8,8,0,0,0-.34,1.44s-1.72-3.22-1-5.68a13.11,13.11,0,0,0,3.2.28A20.25,20.25,0,0,1,643,580,18.75,18.75,0,0,0,646.9,579.84Z"/><path class="cls-22" d="M687.87,709.66H592.13a8.69,8.69,0,0,1-8.68-8.69l-4.6-52.61a8.68,8.68,0,0,1,8.68-8.68H692.47a8.68,8.68,0,0,1,8.68,8.68L696.55,701A8.69,8.69,0,0,1,687.87,709.66Z"/><circle class="cls-14" cx="640" cy="671.2" r="9.01"/><path class="cls-23" d="M531,676.93h5.6v-4.42a2.11,2.11,0,0,1,2.09-2.12h33a2.11,2.11,0,0,1,2.09,2.12v30a7.13,7.13,0,0,1-7.08,7.17H543.71a7.13,7.13,0,0,1-7.08-7.17v-2.21H531a5,5,0,0,1-5-5V682A5,5,0,0,1,531,676.93Zm-.79,18.31a.79.79,0,0,0,.79.79h5.6V681.18H531a.8.8,0,0,0-.79.79Z"/><path class="cls-34" d="M549.74,657.57c2.74,3.42-2.74,6.84,0,10.26"/><path class="cls-34" d="M555.25,667.83c-2.74-3.42,2.73-6.84,0-10.26"/><path class="cls-34" d="M560.75,667.83c-2.73-3.42,2.74-6.84,0-10.26"/><path d="M531,676.93h5.6v-4.42a2.11,2.11,0,0,1,2.09-2.12h16.66v39.27H543.71a7.13,7.13,0,0,1-7.08-7.17v-2.21H531a5,5,0,0,1-5-5V682A5,5,0,0,1,531,676.93Zm-.79,18.31a.79.79,0,0,0,.79.79h5.6V681.18H531a.8.8,0,0,0-.79.79Z"/><path d="M481.62,561.23a48,48,0,0,1-1.57,11.51,61,61,0,0,1-4.83,10.41q-.3.55-.6,1.14c.12,1.14.16,2.3.18,3.44,0,.19,0,.36,0,.54,0,2.3,0,4.73-1,6.75a10.9,10.9,0,0,1-4.27,4l-.35.22c0,.12,0,.24,0,.37s0,.3.05.45c.12,1,.28,2,.47,3a1.29,1.29,0,0,1,0,.19c.22,1,.47,2.09.75,3.13s.62,2.25,1,3.38c.13.46.27.92.42,1.39s.3,1,.46,1.54a.64.64,0,0,1,0,.07c0,.1.06.21.1.32s.13.45.2.68c.14.46.27.92.4,1.39l.24.86a.83.83,0,0,1,0,.15l.05.17c.1.38.2.76.29,1.13l.09.38c.06.23.12.46.17.69,0,.06,0,.11,0,.17a5.27,5.27,0,0,1,.14.64.29.29,0,0,1,0,.09,1.24,1.24,0,0,1,0,.16,2.74,2.74,0,0,1,.05.28c0,.2.09.4.12.59l0,.15c.07.36.13.72.19,1.08s.11.76.16,1.15c.92,7.31-.54,14.71-2.36,21.85-.3,1.18-.63,2.36-1,3.54,0,.14-.07.28-.11.42l-.33,1a0,0,0,0,0,0,0c0,.05,0,.1-.05.16l-.21.58-.33,1c-.15.4-.31.8-.48,1.19l0,.06,0,.07-.08.2c-.34.79-.71,1.56-1.12,2.31a50.71,50.71,0,0,1-7.42,9.57c-.58.64-1.17,1.28-1.76,1.91a136.73,136.73,0,0,0,.1,18.44,13.69,13.69,0,0,0,1.4,6,7.74,7.74,0,0,0-6.42,7.61v7a21,21,0,0,1-2.63-.08c-.7,0-1.41,0-2.11.09-3.74.25-7.47-.07-11.21,0-1.75,0-4.91.06-7.63,0-2.32.06-4.63,0-7,0,2.44.26,4.87.54,7.31.84,1.94.25,4,.55,5.53,1.75s2.34,3.6,1.14,5.16-3.46,1.45-5.37,1.26q-4.79-.49-9.58-.81a278.64,278.64,0,0,0-28.32-.51q-5,.16-10,.51c-10.21.7-20.67,1.94-30.63,0a45.18,45.18,0,0,1-4.42-1.08c-3.12-.93-6.57-2.75-7.06-6-.37-2.42,1.14-4.75,3-6.39a14.53,14.53,0,0,1,1.22-1c4.31-3.19,9.95-4.2,15.33-4.8l1.91-.2c1.31-.13,2.62-.24,3.94-.33a147.62,147.62,0,0,1,15.46-.3c.08-2.89.27-5.78.51-8.66s.58-5.91,1-8.85c.47-3.67,1-7.35,1.61-11,.13-.81.25-1.63.39-2.43a143.72,143.72,0,0,1,3.21-15.48c2.33-8.37,5.88-16.24,12.15-22.12.32-.3.64-.6,1-.89a44.13,44.13,0,0,1,5.2-3.84c2-1.29,4.17-2.46,6.33-3.61,3.15-1.65,6.36-3.24,9.45-5,1.28-.74,2.55-1.52,3.77-2.35.71-.48,1.42-1,2.09-1.49a10.82,10.82,0,0,0,4.83-6.91c.07-.23.14-.47.2-.71l0-.08c.22-.85.45-1.69.68-2.53a11.76,11.76,0,0,1-1.35-1.18l-.26-.29a7.55,7.55,0,0,1-1.07-1.48,8,8,0,0,1-.7-1.91,19.5,19.5,0,0,1-.33-4.84c0-1.32.06-2.66.19-4-.19-.4-.4-.77-.6-1.14-1.55-2.91-3-5.91-4.23-9-1.71-4.1-2.08-8.79-2.15-13.21a1.76,1.76,0,0,1,.21-1,1.18,1.18,0,0,1,1.25-.38,3.58,3.58,0,0,1,1.21.66l9.65,7a36.44,36.44,0,0,0,3.63,2.43,12.18,12.18,0,0,0,2.78,1.37,5.93,5.93,0,0,0,2.71-.46,27.46,27.46,0,0,1,5.71-.79,29.21,29.21,0,0,1,7.33.69c1,.23,2.12.78,3.13.59a11.06,11.06,0,0,0,2.79-1.4c.16-.08.32-.18.48-.28,1.09-.65,2.13-1.4,3.15-2.15l5.59-4.08c1.47-1.08,2.92-2.25,4.43-3.27.65-.43,1.65-.57,2.11.06A2,2,0,0,1,481.62,561.23Z"/><path class="cls-11" d="M459,589.41c2.21-.47,4.44-.91,6.66-1.32l6.69-1.18,6.7-1.07q3.36-.52,6.73-.94c-2.22.46-4.44.91-6.66,1.31l-6.69,1.19-6.71,1.07C463.53,588.81,461.28,589.12,459,589.41Z"/><path class="cls-11" d="M460,590.84c3.67-.58,7.36-1,11-1.37s7.39-.71,11.1-.88c-3.67.58-7.36,1-11,1.37S463.73,590.67,460,590.84Z"/><path class="cls-11" d="M458.77,592.25c3.71.15,7.4.5,11.1.84s7.37.76,11,1.33c-3.71-.15-7.4-.5-11.09-.84S462.44,592.82,458.77,592.25Z"/><path class="cls-11" d="M450.59,591.93q-3.31.69-6.66,1.31l-6.69,1.19-6.7,1.07q-3.36.51-6.73.94,3.33-.71,6.66-1.32l6.69-1.19,6.71-1.07C446.1,592.52,448.35,592.21,450.59,591.93Z"/><path class="cls-11" d="M449.61,590.49c-3.67.58-7.36,1-11,1.38s-7.39.71-11.1.88c3.67-.59,7.36-1,11-1.38S445.9,590.66,449.61,590.49Z"/><path class="cls-11" d="M450.86,589.09c-3.71-.16-7.4-.51-11.1-.84s-7.37-.77-11-1.34c3.71.16,7.4.51,11.09.84S447.19,588.52,450.86,589.09Z"/><path d="M488,696.72l-36.84-63.81a8.66,8.66,0,0,1,3.16-11.79l.36-.21c4.11-2.37,16.36-5.81,18,1.88,3.82,17.57,30.59,65.09,30.59,65.09a8.66,8.66,0,0,1-3.15,11.79l-.37.21A8.65,8.65,0,0,1,488,696.72Z"/><path class="cls-11" d="M503.32,687.88s-1.43-2.53-3.67-6.65c-5.75,2.06-9.7,6.82-15.48,8.81l3.85,6.68a8.65,8.65,0,0,0,11.78,3.16l.37-.21A8.66,8.66,0,0,0,503.32,687.88Z"/><circle class="cls-35" cx="494.56" cy="690.36" r="3.68"/><ellipse class="cls-35" cx="492.61" cy="697.37" rx="1.46" ry="1.97"/><ellipse class="cls-35" cx="497.12" cy="697.5" rx="1.46" ry="1.97" transform="translate(-241.92 264.55) rotate(-24.16)"/><ellipse class="cls-35" cx="500.72" cy="694.86" rx="1.46" ry="2" transform="translate(-344.68 557.59) rotate(-45)"/><ellipse class="cls-35" cx="501.83" cy="691.13" rx="1.46" ry="2.04" transform="translate(-352.24 683.83) rotate(-53.53)"/><path class="cls-11" d="M467.39,703.43a2.82,2.82,0,0,1-.86,1.66,3,3,0,0,1-1.43.47,20.52,20.52,0,0,1-5.48,0c-1,0-2,0-2.94,0-.72.1-1.44.16-2.16.19v-7a7.74,7.74,0,0,1,6.42-7.61,5.49,5.49,0,0,0,1.49,1.66c.64.46,1.39.76,2.05,1.19C467.42,695.92,468.19,700,467.39,703.43Z"/><circle class="cls-15" cx="491.54" cy="706.74" r="13.26"/></g></svg>