<svg id="Grafica" xmlns="http://www.w3.org/2000/svg" viewBox="0 0 438.14 136.92"><defs><style>.cls-1{fill:#fff;}.cls-2{fill:#ee7203;}</style></defs><title>LogoLogo-RGB-Neg-Tr</title><path class="cls-1" d="M82.16,0H13.69A13.69,13.69,0,0,0,0,13.69V82.15H27.39V27.38H82.16Z"/><rect class="cls-2" x="54.77" y="54.77" width="54.77" height="27.39"/><rect class="cls-2" x="54.77" y="109.54" width="27.39" height="27.39"/><polygon class="cls-1" points="163.77 38.34 143.95 38.34 143.95 6.39 136.91 6.39 136.91 44.3 163.77 44.3 163.77 38.34"/><path class="cls-1" d="M172.87,42.32a22.93,22.93,0,0,0,20.9,0,18.69,18.69,0,0,0,7.31-7,19.15,19.15,0,0,0,2.66-10,19.15,19.15,0,0,0-2.66-10,18.6,18.6,0,0,0-7.31-7,22.93,22.93,0,0,0-20.9,0,18.53,18.53,0,0,0-7.31,7,19.19,19.19,0,0,0-2.66,10,19.19,19.19,0,0,0,2.66,10A18.63,18.63,0,0,0,172.87,42.32Zm-1.14-23.83a12.26,12.26,0,0,1,4.77-4.76,14.46,14.46,0,0,1,13.64,0,12.33,12.33,0,0,1,4.77,4.76,13.73,13.73,0,0,1,1.73,6.85,13.7,13.7,0,0,1-1.73,6.85A12.42,12.42,0,0,1,190.14,37a14.53,14.53,0,0,1-13.64,0,12.35,12.35,0,0,1-4.77-4.77A13.7,13.7,0,0,1,170,25.34,13.73,13.73,0,0,1,171.73,18.49Z"/><path class="cls-1" d="M215.27,33.25h8.56a12.93,12.93,0,0,0,1.46-.06L233,44.29h7.58L231.9,31.84a12.43,12.43,0,0,0,6-4.6A12.85,12.85,0,0,0,240,19.87a13,13,0,0,0-1.95-7.2A12.54,12.54,0,0,0,232.41,8a21,21,0,0,0-8.58-1.62h-15.6v37.9h7Zm0-20.91h8.24q4.59,0,7,1.95a6.8,6.8,0,0,1,2.38,5.58,6.88,6.88,0,0,1-2.38,5.61c-1.59,1.32-3.92,2-7,2h-8.24Z"/><polygon class="cls-1" points="273.28 38.39 251.89 38.39 251.89 27.94 270.19 27.94 270.19 22.15 251.89 22.15 251.89 12.29 272.52 12.29 272.52 6.39 244.85 6.39 244.85 44.3 273.28 44.3 273.28 38.39"/><polygon class="cls-1" points="311.51 44.3 311.51 6.39 304.52 6.39 304.52 32.06 283.62 6.39 277.82 6.39 277.82 44.3 284.81 44.3 284.81 18.63 305.71 44.3 311.51 44.3"/><polygon class="cls-1" points="347.45 38.34 324.43 38.34 346.74 11.1 346.74 6.39 315.5 6.39 315.5 12.35 337.43 12.35 315.12 39.58 315.12 44.3 347.45 44.3 347.45 38.34"/><path class="cls-1" d="M357.5,42.32a22.93,22.93,0,0,0,20.9,0,18.76,18.76,0,0,0,7.31-7,19.14,19.14,0,0,0,2.65-10,19.14,19.14,0,0,0-2.65-10,18.66,18.66,0,0,0-7.31-7,22.93,22.93,0,0,0-20.9,0,18.47,18.47,0,0,0-7.31,7,19.19,19.19,0,0,0-2.66,10,19.19,19.19,0,0,0,2.66,10A18.56,18.56,0,0,0,357.5,42.32Zm-1.14-23.83a12.2,12.2,0,0,1,4.77-4.76,14.46,14.46,0,0,1,13.64,0,12.33,12.33,0,0,1,4.77,4.76,13.73,13.73,0,0,1,1.73,6.85,13.7,13.7,0,0,1-1.73,6.85A12.42,12.42,0,0,1,374.77,37a14.53,14.53,0,0,1-13.64,0,12.29,12.29,0,0,1-4.77-4.77,13.6,13.6,0,0,1-1.73-6.85A13.62,13.62,0,0,1,356.36,18.49Z"/><polygon class="cls-1" points="147.63 80.44 164.36 80.44 164.36 72.15 147.63 72.15 147.63 63.81 166.64 63.81 166.64 55.52 136.91 55.52 136.91 93.43 147.63 93.43 147.63 80.44"/><path class="cls-1" d="M236.52,93.43h11.16l-16.79-37.9H220.33l-16.51,37.4L196,81.52a13,13,0,0,0,5.49-4.8,13.19,13.19,0,0,0,1.93-7.17,13.42,13.42,0,0,0-2.06-7.45,13.25,13.25,0,0,0-5.85-4.87,21.59,21.59,0,0,0-8.93-1.7H169.24v37.9H180V83.36h5.85l6.87,10.07h21.86l3-7.36h16ZM190.9,73.64a7.47,7.47,0,0,1-5,1.43h-6V64h6a7.42,7.42,0,0,1,5,1.46,5.21,5.21,0,0,1,1.68,4.12A5.12,5.12,0,0,1,190.9,73.64Zm29.76,4.52L225.53,66l4.87,12.13Z"/><polygon class="cls-1" points="273.87 75.72 257.13 55.52 248.31 55.52 248.31 93.43 258.81 93.43 258.81 73.23 275.54 93.43 284.37 93.43 284.37 55.52 273.87 55.52 273.87 75.72"/><polygon class="cls-1" points="321.61 84.93 301.68 84.93 320.79 62.24 320.79 55.52 288.14 55.52 288.14 64.03 306.77 64.03 287.65 86.72 287.65 93.43 321.61 93.43 321.61 84.93"/><path class="cls-1" d="M353.14,57.31a24.25,24.25,0,0,0-21.61,0,19.38,19.38,0,0,0,0,34.33,24.17,24.17,0,0,0,21.61,0,19.39,19.39,0,0,0,0-34.33Zm-1.93,22.83A9.71,9.71,0,0,1,347.53,84a10.62,10.62,0,0,1-10.4,0,9.78,9.78,0,0,1-3.68-3.81,12.54,12.54,0,0,1,0-11.32A9.81,9.81,0,0,1,337.13,65a10.69,10.69,0,0,1,10.4,0,9.74,9.74,0,0,1,3.68,3.82,12.46,12.46,0,0,1,0,11.32Z"/><polygon class="cls-1" points="392 75.72 375.26 55.52 366.44 55.52 366.44 93.43 376.94 93.43 376.94 73.23 393.67 93.43 402.5 93.43 402.5 55.52 392 55.52 392 75.72"/><polygon class="cls-1" points="418.32 85.15 418.32 78.21 435.17 78.21 435.17 70.2 418.32 70.2 418.32 63.81 437.44 63.81 437.44 55.52 407.71 55.52 407.71 93.43 438.14 93.43 438.14 85.15 418.32 85.15"/><path class="cls-1" d="M145.4,117.63a9.14,9.14,0,0,1,4.4-1,8.81,8.81,0,0,1,6.47,2.69l2.74-2.69a10.58,10.58,0,0,0-4-2.84,14.21,14.21,0,0,0-5.36-1,13.61,13.61,0,0,0-6.51,1.55,11.56,11.56,0,0,0-4.54,4.31,12.52,12.52,0,0,0,0,12.39,11.55,11.55,0,0,0,4.52,4.3,13.34,13.34,0,0,0,6.47,1.56,16.3,16.3,0,0,0,5-.77,13.05,13.05,0,0,0,4.22-2.21v-9.35h-4.12v7.31a9.47,9.47,0,0,1-4.82,1.2A8.76,8.76,0,0,1,145.4,132a7.86,7.86,0,0,1-3-2.95,8.32,8.32,0,0,1-1.09-4.22,8.43,8.43,0,0,1,1.09-4.28A7.64,7.64,0,0,1,145.4,117.63Z"/><path class="cls-1" d="M166.92,121.28v-2.61h-4v17.88h4.18v-8.67a5.65,5.65,0,0,1,1.38-4.1,5,5,0,0,1,3.81-1.43,5.92,5.92,0,0,1,1,.1v-4Q168.74,118.47,166.92,121.28Z"/><path class="cls-1" d="M182.82,118.47a15,15,0,0,0-4.18.57,10.14,10.14,0,0,0-3.38,1.64l1.64,3a7.34,7.34,0,0,1,2.45-1.31,9.8,9.8,0,0,1,3-.47,4.86,4.86,0,0,1,3.33,1,3.64,3.64,0,0,1,1.12,2.88v.26h-4.62q-3.85,0-5.64,1.46a4.76,4.76,0,0,0-1.79,3.87,4.82,4.82,0,0,0,.82,2.76,5.35,5.35,0,0,0,2.33,1.91,8.33,8.33,0,0,0,3.51.69,8.67,8.67,0,0,0,3.44-.62,4.88,4.88,0,0,0,2.19-1.79v2.17h4V126.07c0-2.54-.7-4.45-2.09-5.71A8.76,8.76,0,0,0,182.82,118.47Zm4,12.49a3.88,3.88,0,0,1-1.72,2.06,5.43,5.43,0,0,1-2.8.72,4.13,4.13,0,0,1-2.51-.67,2.14,2.14,0,0,1-.9-1.81c0-1.59,1.2-2.38,3.62-2.38h4.31Z"/><path class="cls-1" d="M212.46,110.7a2.7,2.7,0,0,0-1.91.72,2.47,2.47,0,0,0,0,3.58,2.7,2.7,0,0,0,1.91.72,2.64,2.64,0,0,0,1.93-.75,2.53,2.53,0,0,0,.75-1.86,2.22,2.22,0,0,0-.77-1.72A2.77,2.77,0,0,0,212.46,110.7Z"/><path class="cls-1" d="M197.55,113.13a6.12,6.12,0,0,0-1.67,4.54v1.14h-2.94v3.34h2.94v14.4h4.19v-14.4h4.79v-3.34h-4.92v-1.08c0-1.92.87-2.87,2.64-2.87a4,4,0,0,1,2.31.73l1.17-3.15a7.69,7.69,0,0,0-8.51.69Z"/><rect class="cls-1" x="210.35" y="118.67" width="4.19" height="17.88"/><path class="cls-1" d="M227.19,122a5.21,5.21,0,0,1,2.53.62,5,5,0,0,1,1.92,1.86l3.22-1.88a7,7,0,0,0-3-3.08,9.69,9.69,0,0,0-4.64-1.07,10.46,10.46,0,0,0-5,1.17,8.69,8.69,0,0,0-3.44,3.25,9.64,9.64,0,0,0,0,9.46,8.63,8.63,0,0,0,3.45,3.27,10.53,10.53,0,0,0,5,1.17,9.52,9.52,0,0,0,4.61-1.09,7.25,7.25,0,0,0,3-3.1l-3.22-1.87a5.1,5.1,0,0,1-1.92,1.86,5.63,5.63,0,0,1-6.43-.91,6.19,6.19,0,0,1,0-8.14A5.32,5.32,0,0,1,227.19,122Z"/><path class="cls-1" d="M244.55,118.47a15,15,0,0,0-4.18.57,10.24,10.24,0,0,0-3.38,1.64l1.64,3a7.39,7.39,0,0,1,2.46-1.31,9.69,9.69,0,0,1,3-.47,4.84,4.84,0,0,1,3.33,1,3.65,3.65,0,0,1,1.13,2.88v.26h-4.63q-3.84,0-5.64,1.46a4.76,4.76,0,0,0-1.79,3.87,4.82,4.82,0,0,0,.82,2.76,5.47,5.47,0,0,0,2.33,1.91,8.33,8.33,0,0,0,3.51.69,8.63,8.63,0,0,0,3.44-.62,4.82,4.82,0,0,0,2.19-1.79v2.17h3.95V126.07c0-2.54-.7-4.45-2.09-5.71A8.74,8.74,0,0,0,244.55,118.47Zm4,12.49a3.9,3.9,0,0,1-1.73,2.06,5.39,5.39,0,0,1-2.79.72,4.15,4.15,0,0,1-2.52-.67,2.14,2.14,0,0,1-.9-1.81c0-1.59,1.2-2.38,3.62-2.38h4.32Z"/><path class="cls-1" d="M283.39,126,280,124.93a15.13,15.13,0,0,1-1.3,3.95l-5.06-4.82a12.78,12.78,0,0,0,3.67-2.84,5,5,0,0,0,1.12-3.22,4.6,4.6,0,0,0-1.71-3.77,7,7,0,0,0-4.55-1.39,7.52,7.52,0,0,0-4.94,1.53,4.91,4.91,0,0,0-1.86,4,5.58,5.58,0,0,0,.61,2.53,10.1,10.1,0,0,0,2,2.63,13.51,13.51,0,0,0-4.15,3.26,6.12,6.12,0,0,0-1.27,3.84,5.12,5.12,0,0,0,1.1,3.23,7.2,7.2,0,0,0,3.05,2.22,11.3,11.3,0,0,0,4.39.81,11.63,11.63,0,0,0,7.86-2.82l2.95,2.85,2.31-2.71-3-2.81A16,16,0,0,0,283.39,126ZM270,116.51a3.23,3.23,0,0,1,2.18-.68,3.07,3.07,0,0,1,2,.59,2.06,2.06,0,0,1,.72,1.65,2.57,2.57,0,0,1-.78,1.79,12.11,12.11,0,0,1-2.8,1.92,11.46,11.46,0,0,1-1.68-2,2.9,2.9,0,0,1-.43-1.52A2.26,2.26,0,0,1,270,116.51Zm1.41,17a6,6,0,0,1-3.45-.9,2.79,2.79,0,0,1-1.31-2.38,3.59,3.59,0,0,1,.82-2.29,9.68,9.68,0,0,1,2.83-2.13l6.2,5.93A7.83,7.83,0,0,1,271.41,133.47Z"/><polygon class="cls-1" points="317.99 131.03 312.06 113.11 308.04 113.11 301.98 130.93 296.15 113.11 291.63 113.11 299.4 136.55 304.06 136.55 309.95 119.2 315.75 136.55 320.37 136.55 328.14 113.11 323.98 113.11 317.99 131.03"/><path class="cls-1" d="M342.14,119.62a9.48,9.48,0,0,0-4.67-1.15,9.61,9.61,0,0,0-4.75,1.17,8.44,8.44,0,0,0-3.3,3.27,9.26,9.26,0,0,0-1.2,4.7,9.15,9.15,0,0,0,1.23,4.74,8.37,8.37,0,0,0,3.47,3.27,12.06,12.06,0,0,0,9.34.43,7.5,7.5,0,0,0,3.05-2.18l-2.25-2.58a6.5,6.5,0,0,1-4.86,2,6.32,6.32,0,0,1-3.86-1.16,4.87,4.87,0,0,1-1.93-3.13h14c0-.53.06-.95.06-1.24a10,10,0,0,0-1.15-4.84A8.32,8.32,0,0,0,342.14,119.62Zm-9.76,6.55a5.24,5.24,0,0,1,8.51-3.14,5,5,0,0,1,1.64,3.14Z"/><path class="cls-1" d="M364.09,119.61a9.48,9.48,0,0,0-4.68-1.14,8.28,8.28,0,0,0-3.19.6,7.14,7.14,0,0,0-2.53,1.78V111.7H349.5v24.85h4v-2.31a6.44,6.44,0,0,0,2.56,1.91,8.53,8.53,0,0,0,3.36.64,9.48,9.48,0,0,0,4.68-1.14,8.22,8.22,0,0,0,3.23-3.23,10.43,10.43,0,0,0,0-9.6A8.24,8.24,0,0,0,364.09,119.61Zm-1.34,12a5.07,5.07,0,0,1-3.81,1.55,5.38,5.38,0,0,1-2.71-.69,5,5,0,0,1-1.9-2,6.46,6.46,0,0,1,0-5.89,5,5,0,0,1,1.9-2,5.48,5.48,0,0,1,2.71-.68,5.06,5.06,0,0,1,3.81,1.54,6.25,6.25,0,0,1,0,8.1Z"/></svg>